<mxfile host="Electron" modified="2024-12-18T19:22:25.925Z" agent="Mozilla/5.0 (X11; Linux x86_64) AppleWebKit/537.36 (KHTML, like Gecko) draw.io/24.6.4 Chrome/124.0.6367.207 Electron/30.0.6 Safari/537.36" etag="OM7K3biJOFX8J6mdjywn" version="24.6.4" type="device">
  <diagram name="Page-1" id="sYDoMo5Ecqx081uPIvk7">
    <mxGraphModel dx="1975" dy="829" grid="1" gridSize="10" guides="1" tooltips="1" connect="1" arrows="1" fold="1" page="1" pageScale="1" pageWidth="1700" pageHeight="1100" math="0" shadow="0">
      <root>
        <mxCell id="0" />
        <mxCell id="1" parent="0" />
        <mxCell id="ZCSFj_yzaAM_PpyEBcvA-1" value="operator" style="shape=umlActor;verticalLabelPosition=bottom;verticalAlign=top;html=1;outlineConnect=0;" vertex="1" parent="1">
          <mxGeometry x="330" y="170" width="30" height="60" as="geometry" />
        </mxCell>
        <mxCell id="ZCSFj_yzaAM_PpyEBcvA-2" value="" style="rounded=0;whiteSpace=wrap;html=1;" vertex="1" parent="1">
          <mxGeometry x="370" y="230" width="940" height="250" as="geometry" />
        </mxCell>
        <mxCell id="ZCSFj_yzaAM_PpyEBcvA-3" value="" style="rounded=1;whiteSpace=wrap;html=1;" vertex="1" parent="1">
          <mxGeometry x="870" y="170" width="120" height="60" as="geometry" />
        </mxCell>
        <mxCell id="ZCSFj_yzaAM_PpyEBcvA-4" value="" style="shape=xor;whiteSpace=wrap;html=1;" vertex="1" parent="1">
          <mxGeometry x="915" y="50" width="30" height="80" as="geometry" />
        </mxCell>
        <mxCell id="ZCSFj_yzaAM_PpyEBcvA-6" style="edgeStyle=orthogonalEdgeStyle;rounded=0;orthogonalLoop=1;jettySize=auto;html=1;exitX=0.5;exitY=0;exitDx=0;exitDy=0;entryX=0.5;entryY=1;entryDx=0;entryDy=0;curved=1;endArrow=none;endFill=0;" edge="1" parent="1" source="ZCSFj_yzaAM_PpyEBcvA-5" target="ZCSFj_yzaAM_PpyEBcvA-3">
          <mxGeometry relative="1" as="geometry" />
        </mxCell>
        <mxCell id="ZCSFj_yzaAM_PpyEBcvA-5" value="" style="ellipse;whiteSpace=wrap;html=1;" vertex="1" parent="1">
          <mxGeometry x="1110" y="350" width="120" height="80" as="geometry" />
        </mxCell>
        <mxCell id="ZCSFj_yzaAM_PpyEBcvA-9" style="edgeStyle=orthogonalEdgeStyle;rounded=0;orthogonalLoop=1;jettySize=auto;html=1;exitX=0.7;exitY=0.1;exitDx=0;exitDy=0;exitPerimeter=0;endArrow=none;endFill=0;" edge="1" parent="1" source="ZCSFj_yzaAM_PpyEBcvA-8">
          <mxGeometry relative="1" as="geometry">
            <mxPoint x="278" y="240" as="targetPoint" />
          </mxGeometry>
        </mxCell>
        <mxCell id="ZCSFj_yzaAM_PpyEBcvA-8" value="" style="shape=xor;whiteSpace=wrap;html=1;direction=west;" vertex="1" parent="1">
          <mxGeometry x="270" y="70" width="30" height="80" as="geometry" />
        </mxCell>
        <mxCell id="ZCSFj_yzaAM_PpyEBcvA-11" style="edgeStyle=orthogonalEdgeStyle;rounded=0;orthogonalLoop=1;jettySize=auto;html=1;exitX=0.25;exitY=0.5;exitDx=0;exitDy=0;exitPerimeter=0;entryX=0.25;entryY=0.5;entryDx=0;entryDy=0;entryPerimeter=0;endArrow=none;endFill=0;curved=1;dashed=1;dashPattern=8 8;" edge="1" parent="1" source="ZCSFj_yzaAM_PpyEBcvA-8" target="ZCSFj_yzaAM_PpyEBcvA-4">
          <mxGeometry relative="1" as="geometry">
            <Array as="points">
              <mxPoint x="585" y="110" />
              <mxPoint x="585" y="90" />
            </Array>
          </mxGeometry>
        </mxCell>
        <mxCell id="ZCSFj_yzaAM_PpyEBcvA-12" style="edgeStyle=orthogonalEdgeStyle;rounded=0;orthogonalLoop=1;jettySize=auto;html=1;exitX=0.5;exitY=0;exitDx=0;exitDy=0;entryX=0.5;entryY=0.988;entryDx=0;entryDy=0;entryPerimeter=0;endArrow=none;endFill=0;" edge="1" parent="1" source="ZCSFj_yzaAM_PpyEBcvA-3" target="ZCSFj_yzaAM_PpyEBcvA-4">
          <mxGeometry relative="1" as="geometry" />
        </mxCell>
        <mxCell id="ZCSFj_yzaAM_PpyEBcvA-13" value="" style="endArrow=none;html=1;rounded=0;entryX=0.7;entryY=0.1;entryDx=0;entryDy=0;entryPerimeter=0;" edge="1" parent="1" target="ZCSFj_yzaAM_PpyEBcvA-8">
          <mxGeometry width="50" height="50" relative="1" as="geometry">
            <mxPoint x="240" y="240" as="sourcePoint" />
            <mxPoint x="260" y="200" as="targetPoint" />
          </mxGeometry>
        </mxCell>
        <mxCell id="ZCSFj_yzaAM_PpyEBcvA-14" value="" style="endArrow=none;html=1;rounded=0;entryX=0.7;entryY=0.1;entryDx=0;entryDy=0;entryPerimeter=0;" edge="1" parent="1" target="ZCSFj_yzaAM_PpyEBcvA-8">
          <mxGeometry width="50" height="50" relative="1" as="geometry">
            <mxPoint x="320" y="240" as="sourcePoint" />
            <mxPoint x="288" y="152" as="targetPoint" />
          </mxGeometry>
        </mxCell>
      </root>
    </mxGraphModel>
  </diagram>
</mxfile>
